# xmcd
#
# Track frame offsets: 
#        150
#        20479
#        38256
#        59024
#        77485
#        101005
#        119325
#        141127
#        160552
#        180450
#        196305
#        215459
#
# Disc length: 3095 seconds
#
# Revision: 0
# Processed by: cddbd v1.5.2PL0 Copyright (c) Steve Scherf et al.
# Submitted via: ExactAudioCopyFreeDBPlugin 1.0
#
DISCID=960c150c
DTITLE=李代沫 - 敏感者
DYEAR=1900
DGENRE=Pop
TTITLE0=伤
TTITLE1=贪图
TTITLE2=简单的事
TTITLE3=不相信·爱情
TTITLE4=患者
TTITLE5=他们
TTITLE6=会说话的哑巴
TTITLE7=越发寂寞
TTITLE8=爱过那张脸
TTITLE9=骨子里的我
TTITLE10=I BELIEVE I CAN
TTITLE11=即客
EXTD=
EXTT0=
EXTT1=
EXTT2=
EXTT3=
EXTT4=
EXTT5=
EXTT6=
EXTT7=
EXTT8=
EXTT9=
EXTT10=
EXTT11=
PLAYORDER=
